<?xml version="1.0" encoding="UTF-8"?>
<svg width="100" height="100" viewBox="0 0 800 800" xmlns="http://www.w3.org/2000/svg">
  <path d="M0 0h800v800H0z" fill="#660080"/>
  <g transform="scale(1.3, 1.3) translate(-130, 60)">
    <text x="321.985" y="210.957" fill="#fff" font-family="Tahoma" font-size="88" font-weight="700">
      <tspan>Line</tspan>
      <tspan x="321.985" y="298.957">Apparel</tspan>
    </text>
    <path d="M229.644 151.04v9.68h43.594v-9.68zm-5.057 16.93c-7.884.001-13.448.011-14.27.036-3.282.1-3.331 2.737-3.331 2.737v4.351l89-.025s.074-1.144 0-4.004c-.075-2.86-3.207-3.033-3.207-3.033s-44.538-.07-68.192-.063zm-17.578 14.577v6.008h88.928v-6.008zm0 13.852v6.01h88.928v-6.01zm-.279 13.699l-.006 7.455 16.232-7.45zm35.488.014l-35.502 16.29-.004 7.018 50.776-23.302zm34.207.013l-69.72 31.997-.006 7.115.029.09 84.969-39.196zm19.23 5.953l-88.962 41.19-.006 7.639 21.29-9.752 67.66-31.327zm-.089 15.754l-12.043 5.508 12.135 5.463zm-22.121 10.116l-8.598 3.931 30.95 13.41-.065-7.685zm-16.889 7.722l-8.597 3.932 47.962 20.781-.064-7.683zm-17.527 8.016l-8.598 3.932 59.287 25.687h2.1s4.205-.814 4.186-3.16l-.016-1.78zm-17.758 8.119l-8.6 3.934 40.577 17.578c8.375-.004 11.123-.01 17.648-.01zm-14.594 9.682l.051 8.494s-.057 3.39 4.072 3.38c5.924-.014 14.538-.015 22.2-.023zm22.967 18.886v9.68h43.594v-9.68z" fill="#fff"/>
  </g>
</svg>
